<svg xmlns="http://www.w3.org/2000/svg" width="960" height="540" viewBox="0 0 960 540" role="img" aria-labelledby="title desc">
  <title id="title">BuildMyCVNow tutorial video poster</title>
  <desc id="desc">A preview of a finished CV with a play button for the BuildMyCVNow tutorial video.</desc>
  <rect width="960" height="540" fill="#f8fbff"/>
  <rect x="54" y="46" width="852" height="448" rx="26" fill="#ffffff" stroke="#dbe3ef" stroke-width="2"/>
  <rect x="54" y="46" width="852" height="56" rx="26" fill="#ffffff"/>
  <circle cx="94" cy="74" r="7" fill="#ef4444"/>
  <circle cx="118" cy="74" r="7" fill="#f59e0b"/>
  <circle cx="142" cy="74" r="7" fill="#16a34a"/>
  <rect x="184" y="62" width="420" height="24" rx="12" fill="#eef4fb"/>
  <text x="206" y="79" font-family="Inter, Arial, sans-serif" font-size="14" font-weight="700" fill="#334155">buildmycvnow.com/builder</text>
  <rect x="104" y="140" width="280" height="310" rx="18" fill="#185fa5"/>
  <circle cx="244" cy="222" r="54" fill="#4c78a8"/>
  <text x="244" y="240" font-family="Inter, Arial, sans-serif" font-size="44" font-weight="900" fill="#ffffff" text-anchor="middle">CV</text>
  <text x="244" y="316" font-family="Inter, Arial, sans-serif" font-size="32" font-weight="900" fill="#ffffff" text-anchor="middle">Amina Nwosu</text>
  <text x="244" y="350" font-family="Inter, Arial, sans-serif" font-size="19" font-weight="800" fill="#bfdbfe" text-anchor="middle">Hotel Manager</text>
  <rect x="420" y="140" width="430" height="310" rx="18" fill="#ffffff" stroke="#dbe3ef" stroke-width="2"/>
  <text x="456" y="196" font-family="Inter, Arial, sans-serif" font-size="20" font-weight="900" fill="#185fa5">PROFESSIONAL SUMMARY</text>
  <rect x="456" y="214" width="330" height="4" rx="2" fill="#2563eb"/>
  <rect x="456" y="246" width="340" height="12" rx="6" fill="#dbeafe"/>
  <rect x="456" y="270" width="288" height="12" rx="6" fill="#e2e8f0"/>
  <text x="456" y="334" font-family="Inter, Arial, sans-serif" font-size="20" font-weight="900" fill="#185fa5">WORK EXPERIENCE</text>
  <rect x="456" y="352" width="330" height="4" rx="2" fill="#2563eb"/>
  <rect x="456" y="384" width="360" height="12" rx="6" fill="#dbeafe"/>
  <rect x="456" y="408" width="302" height="12" rx="6" fill="#e2e8f0"/>
  <circle cx="480" cy="270" r="82" fill="#16a34a" opacity=".13"/>
  <circle cx="480" cy="270" r="64" fill="#16a34a"/>
  <polygon points="458,232 458,308 520,270" fill="#ffffff"/>
  <text x="480" y="478" font-family="Inter, Arial, sans-serif" font-size="18" font-weight="900" fill="#0f172a" text-anchor="middle">2 min demo - no audio needed</text>
</svg>
